<?xml version="1.0" standalone="no"?>
<!DOCTYPE svg PUBLIC "-//W3C//DTD SVG 20010904//EN"
 "http://www.w3.org/TR/2001/REC-SVG-20010904/DTD/svg10.dtd">
<svg version="1.0" xmlns="http://www.w3.org/2000/svg"
 width="300.000000pt" height="300.000000pt" viewBox="0 0 300.000000 300.000000"
 preserveAspectRatio="xMidYMid meet">
<metadata>
Created by potrace 1.14, written by Peter Selinger 2001-2017
</metadata>
<g transform="translate(0.000000,300.000000) scale(0.100000,-0.100000)"
fill="#000000" stroke="none">
<path d="M1300 2705 c-113 -53 -241 -113 -285 -134 -44 -22 -145 -69 -225
-106 -80 -37 -260 -121 -400 -187 -140 -66 -281 -131 -313 -146 l-58 -26 7
-40 c3 -23 8 -48 9 -57 2 -9 6 -32 9 -50 3 -19 8 -45 11 -59 3 -14 8 -45 11
-70 3 -25 7 -53 10 -62 6 -20 11 -44 18 -94 12 -72 25 -148 56 -329 17 -99 33
-195 36 -214 3 -18 7 -43 10 -54 2 -12 6 -39 9 -62 9 -59 36 -106 76 -127 31
-17 58 -18 269 -17 262 1 292 7 325 62 18 30 19 57 20 482 1 308 5 456 12 470
26 47 63 70 112 70 47 0 72 -13 301 -156 265 -165 336 -205 340 -193 4 11 5
948 1 1082 -2 51 -55 103 -111 108 -40 4 -67 -6 -250 -91z"/>
<path d="M2184 2094 c-17 -9 -39 -30 -50 -48 -17 -29 -19 -59 -19 -483 l-1
-451 -24 -35 c-24 -35 -67 -57 -111 -57 -26 0 -59 19 -415 238 -115 71 -211
125 -214 121 -3 -4 -5 -255 -4 -557 l0 -550 25 -36 c24 -36 62 -56 106 -56 24
0 53 12 198 80 44 21 177 83 295 138 118 55 258 120 310 145 52 24 120 56 150
70 30 14 100 46 155 72 94 44 140 66 328 153 72 33 77 38 73 61 -3 14 -8 44
-11 66 -3 22 -10 63 -15 90 -5 28 -12 66 -15 85 -3 19 -12 71 -20 115 -7 44
-16 94 -18 110 -5 31 -24 142 -31 185 -17 96 -46 261 -50 290 -3 19 -8 46 -11
60 -3 14 -8 41 -11 60 -10 66 -24 97 -57 121 -32 24 -35 24 -282 26 -210 2
-255 0 -281 -13z"/>
</g>
</svg>
