<svg version="1.1" id="Layer_1" xmlns="http://www.w3.org/2000/svg" xmlns:xlink="http://www.w3.org/1999/xlink" x="0px" y="0px"
	 viewBox="0 0 50.2157478 43.7697639" style="enable-background:new 0 0 50.2157478 43.7697639;" xml:space="preserve">
<style type="text/css">
	.st0{fill:url(#gradient);}
	.c1{stop-color: #009dff;}
	.c2{stop-color: #ffffff00;}
	.c3{stop-color: #5500ff;}
</style>
    <linearGradient id="gradient" gradientUnits="userSpaceOnUse" 
   x1="0%" y1="0%" x2="100%" y2="0%" gradientTransform="rotate(65)">
    <stop class="c3" offset="20%" />
    <stop class="c2" offset="60%" />
    <stop class="c1" offset="100%" />
  </linearGradient>
<path class="st0" opacity="0.1" d="M27.7844734,11.6057816V2.1377831c0-1.5299988-1.5790005-2.5639992-3.0030003-1.9659997L0.0004731,11.6057816
	l3.2600002,18.823c0.1779995,1.0249996,1.0760002,1.7749996,2.1280003,1.7749996h7.2559996
	c1.1920004,0,2.1590004-0.9559994,2.1590004-2.1359997V16.1617832c0-1.6690006,1.849-2.6930008,3.2869997-1.8200016
	l9.6940002,5.8830013V11.6057816z"/>
<path class="st0" opacity="0.1" d="M44.8276749,11.5663834h-7.2560005c-1.1920013,0-2.1590004,0.9560013-2.1590004,2.1360016v13.9049988
	c0,1.6700001-1.848999,2.6940002-3.2869987,1.8209991l-9.6940002-5.8829994v8.6189995v9.4679985
	c0,1.5300026,1.5790005,2.564003,3.0030003,1.9660034l24.7809963-11.4340019l-3.2599983-18.822998
	C46.7776718,12.3163834,45.879673,11.5663834,44.8276749,11.5663834"/>
</svg>