<svg version="1.1" id="Layer_1" xmlns="http://www.w3.org/2000/svg" xmlns:xlink="http://www.w3.org/1999/xlink" x="0px" y="0px"
	 viewBox="0 0 166.1210938 41.5371017" style="enable-background:new 0 0 166.1210938 41.5371017;" xml:space="preserve">
<style type="text/css">
	.st0{fill:#FFFFFF;}
	.st1{opacity:0.1;}
	.st2{fill:none;}
	.st3{fill:#573C8D;}
	.st4{fill:#8D3C83;}
	.st5{fill:#ED2D7A;}
</style>
<g>
	<path class="st0" shape-rendering="optimizeQuality" d="M77.8393555,29.2265587H66.6489258c-3.3085899,0-5.9999962-2.6914062-5.9999962-6V5.9999952
		c0-3.3085938,2.6914062-6,5.9999962-6h11.1904297v3H66.6489258c-1.6542969,0-2.9999962,1.3457031-2.9999962,3v17.2265625
		c0,1.6542969,1.3456993,3,2.9999962,3h11.1904297V29.2265587z"/>
	<path class="st0" shape-rendering="optimizeQuality" d="M29.2280312,2.9999952h10.1899414v-3H29.2280312c-3.3085938,0-6,2.6914062-6,6v17.2265625
		c0,3.3085938,2.6914062,6,6,6h10.1899414v-3H29.2280312c-1.6542969,0-3-1.3457031-3-3v-4.9472656h10.1899414v-3.000001H26.2280312
		V5.9999952C26.2280312,4.3456984,27.5737343,2.9999952,29.2280312,2.9999952z"/>
	<polygon class="st0" shape-rendering="optimizeQuality" points="59.0996132,-0.0000047 41.4091835,-0.0000047 41.4091835,2.9999952 48.7543983,2.9999952 
		48.7543983,29.2265587 51.7543983,29.2265587 51.7543983,2.9999952 59.0996132,2.9999952 	"/>
	<path class="st0" shape-rendering="optimizeQuality" d="M100.859375,12.2792921V5.9999952c0-3.3085938-2.6914062-6-6-6H80.1689453v29.2265625h3V18.2792931h6.1409302
		l7.2594604,4.5712891c0.8076172,0.5068359,1.2900391,1.3789062,1.2900391,2.3330078v4.0429688h3v-4.0429688
		c0-1.9921875-1.0073242-3.8144531-2.6933594-4.8730469l-3.2316284-2.0350342
		C98.2081909,18.2347374,100.859375,15.5625563,100.859375,12.2792921z M97.859375,12.2792921c0,1.6542969-1.3457031,3-3,3
		H83.1689453V2.9999952H94.859375c1.6542969,0,3,1.3457031,3,3V12.2792921z"/>
	<path class="st0" shape-rendering="optimizeQuality" d="M118.2080078-0.0000047h-8.6904297c-3.3085938,0-6,2.6914062-6,6v23.2265625h3V18.2792931h14.6904297
		v10.9472656h3V5.9999952C124.2080078,2.6914015,121.5166016-0.0000047,118.2080078-0.0000047z M106.5175781,15.2792921V5.9999952
		c0-1.6542969,1.3457031-3,3-3h8.6904297c1.6542969,0,3,1.3457031,3,3v9.2792969H106.5175781z"/>
	<polygon class="st0" shape-rendering="optimizeQuality" points="166.1210938,-0.0000047 148.4311523,-0.0000047 148.4311523,2.9999952 155.7763672,2.9999952 
		155.7763672,29.2265587 158.7763672,29.2265587 158.7763672,2.9999952 166.1210938,2.9999952 	"/>
	<path class="st0" shape-rendering="optimizeQuality" d="M20.6904335,29.2265587h-3V5.9999952c0-1.6542969-1.3457031-3-3.000001-3H6.0000033
		c-1.6542969,0-3.0000002,1.3457031-3.0000002,3v23.2265625h-3V5.9999952c0-3.3085938,2.6914062-6,6-6h8.6904297
		c3.3085947,0,6.000001,2.6914062,6.000001,6V29.2265587z"/>
	<path class="st0" shape-rendering="optimizeQuality" d="M132.940918,2.9999952h13.1904297v-3H132.940918c-3.3085938,0-6,2.6914062-6,6v23.2265625h3V18.2792931
		h10.2324219v-3.000001H129.940918V5.9999952C129.940918,4.3456984,131.2866211,2.9999952,132.940918,2.9999952z"/>
	<g class="st1">
		<path class="st2" shape-rendering="optimizeQuality" d="M36.41819,16.7788792"/>
	</g>
	<g class="st1">
		<path class="st2" shape-rendering="optimizeQuality" d="M157.2761383,16.7788792"/>
	</g>
	<path class="st3" shape-rendering="optimizeQuality" d="M155.7763672,33.8818321v1.6552734c0,1.6542969-1.3457031,3-3,3h-23.6472168
		c-1.0393677,1.7904053-2.9730835,3-5.1882324,3h28.8354492c3.3085938,0,6-2.6914062,6-6v-1.6552734H155.7763672z"/>
	<path class="st3" shape-rendering="optimizeQuality" d="M18.5022011,38.5371056H6.0000033c-1.6542969,0-3.0000002-1.3457031-3.0000002-3v-1.8105469h-3v1.8105469
		c0,3.3085938,2.6914062,6,6,6h17.6904297C21.4752846,41.5371056,19.5415688,40.3275108,18.5022011,38.5371056z"/>
	<path class="st4" shape-rendering="optimizeQuality" d="M126.940918,33.8818321v1.6552734c0,1.6542969-1.3457031,3-3,3h-18.2351074
		c-1.0393677,1.7904053-2.9730835,3-5.1882324,3h23.4233398c3.3085938,0,6-2.6914062,6-6v-1.6552734H126.940918z"/>
	<path class="st4" shape-rendering="optimizeQuality" d="M49.5661659,38.5371056H23.6904335c-1.6542969,0-3-1.3457031-3-3v-1.6552734h-3v1.6552734
		c0,3.3085938,2.6914062,6,6,6h31.0639648C52.5392494,41.5371056,50.6055336,40.3275108,49.5661659,38.5371056z"/>
	<path class="st5" shape-rendering="optimizeQuality" d="M103.5175781,33.8818321v1.6552734c0,1.6542969-1.3457031,3-3,3H83.1689453h-7.5935669H54.7543983
		c-1.6542969,0-3-1.3457031-3-3v-1.6552734h-3v1.6552734c0,3.3085938,2.6914062,6,6,6h20.8209801h7.5935669h17.3486328
		c3.3085938,0,6-2.6914062,6-6v-1.6552734H103.5175781z"/>
</g>
</svg>
